<?xml version="1.0" encoding="UTF-8" standalone="no"?>
<!-- Created with Inkscape (http://www.inkscape.org/) -->

<svg
   width="48"
   height="48"
   viewBox="0 0 48 48"
   version="1.1"
   id="svg5"
   sodipodi:docname="new.svg"
   inkscape:version="1.1.2 (0a00cf5339, 2022-02-04, custom)"
   xmlns:inkscape="http://www.inkscape.org/namespaces/inkscape"
   xmlns:sodipodi="http://sodipodi.sourceforge.net/DTD/sodipodi-0.dtd"
   xmlns="http://www.w3.org/2000/svg"
   xmlns:svg="http://www.w3.org/2000/svg">
  <sodipodi:namedview
     id="namedview10"
     pagecolor="#505050"
     bordercolor="#ffffff"
     borderopacity="1"
     inkscape:pageshadow="0"
     inkscape:pageopacity="0"
     inkscape:pagecheckerboard="1"
     showgrid="false"
     inkscape:zoom="11.125"
     inkscape:cx="24"
     inkscape:cy="24"
     inkscape:window-width="1366"
     inkscape:window-height="715"
     inkscape:window-x="0"
     inkscape:window-y="0"
     inkscape:window-maximized="1"
     inkscape:current-layer="layer1" />
  <defs
     id="defs2" />
  <g
     id="layer1">
    <path
       id="path1808"
       style="color:#000000;fill:#ffffff;fill-rule:evenodd;-inkscape-stroke:none"
       d="M 8.6132812 4.0722656 C 6.8334994 4.0722656 5.3417969 5.5639681 5.3417969 7.34375 L 5.3417969 34.65625 C 5.3417969 36.436032 6.8334994 37.927734 8.6132812 37.927734 L 19.380859 37.927734 L 19.380859 33.384766 L 9.8847656 33.384766 L 9.8847656 8.6152344 L 34.654297 8.6152344 L 34.654297 19.726562 L 39.195312 19.726562 L 39.195312 7.34375 C 39.195312 5.5639681 37.70361 4.0722656 35.923828 4.0722656 L 8.6132812 4.0722656 z " />
    <circle
       style="display:none;fill:#ffffff;fill-opacity:1;stroke:none;stroke-width:5.75274;stroke-miterlimit:4;stroke-dasharray:none;stroke-opacity:1"
       id="circle2328"
       cx="34.893879"
       cy="34.991364"
       r="10.674053" />
    <path
       id="path2080"
       style="fill:#ffffff;fill-opacity:1;stroke:none;stroke-width:8.04514;stroke-miterlimit:4;stroke-dasharray:none;stroke-opacity:1"
       d="M 28.889497,14.057656 A 14.92753,14.92753 0 0 0 13.96304,28.98738 14.92753,14.92753 0 0 0 28.889497,43.913836 14.92753,14.92753 0 0 0 43.815953,28.98738 14.92753,14.92753 0 0 0 28.889497,14.057656 Z m -0.06535,3.999558 h 0.130713 c 1.235395,0 2.238314,0.999653 2.238314,2.235047 v 6.391452 h 6.388185 c 1.235393,0 2.238314,0.999651 2.238314,2.235046 v 0.133975 c 0,1.235395 -1.002921,2.238316 -2.238314,2.238316 h -6.388185 v 6.388183 c 0,1.235395 -1.00292,2.238315 -2.238314,2.238315 h -0.130713 c -1.235391,0 -2.238315,-1.002922 -2.238315,-2.238315 V 31.29105 H 20.19765 c -1.235391,0 -2.238316,-1.002921 -2.238316,-2.238316 v -0.133975 c 0,-1.235395 1.002925,-2.235046 2.238316,-2.235046 h 6.388183 v -6.391452 c 0,-1.235394 1.002924,-2.235047 2.238315,-2.235047 z" />
  </g>
</svg>
